# xmcd
#
# Track frame offsets:
#	183
#	20433
#	40508
#	54820
#	69183
#	94495
#	116020
#	147033
#	165933
#	183338
#	194733
#	207483
#	224958
#	245095
#	259345
#	274538
#	292570
#
# Disc length: 4252 seconds
#
# Revision: 0
# Processed by: cddbd v1.5.2PL0 Copyright (c) Steve Scherf et al.
# Submitted via: EZCDAudioConverter 1.3.4.1
#
DISCID=fb109a11
DTITLE=Richard Thompson - Watching The Dark 2/3
DYEAR=1993
DGENRE=
TTITLE0=For Shame Of Doing Wrong
TTITLE1=Back Street Slide
TTITLE2=Strange Affair
TTITLE3=The Wrong Heartbeat
TTITLE4=Borrowed Time
TTITLE5=From Galway To Graceland [Live]
TTITLE6=Tear Stained Letter [Live]
TTITLE7=Keep Your Distance
TTITLE8=Bogie's Bonnie Belle [Live]
TTITLE9=Poor Wee Jockey Clarke
TTITLE10=Jet Plane In A Rocking Chair
TTITLE11=Dimming Of The Day
TTITLE12=Old Man Inside A Young Man
TTITLE13=Never Again
TTITLE14=Hokey Pokey (The Ice Cream Song)
TTITLE15=A Heart Needs A Home [Live]
TTITLE16=Beat The Retreat
EXTD=
EXTT0=
EXTT1=
EXTT2=
EXTT3=
EXTT4=
EXTT5=
EXTT6=
EXTT7=
EXTT8=
EXTT9=
EXTT10=
EXTT11=
EXTT12=
EXTT13=
EXTT14=
EXTT15=
EXTT16=
PLAYORDER=
